<?xml version="1.0" encoding="utf-8"?>
<!-- Generator: Adobe Illustrator 23.0.6, SVG Export Plug-In . SVG Version: 6.00 Build 0)  -->
<svg version="1.1" id="Layer_1" xmlns="http://www.w3.org/2000/svg" xmlns:xlink="http://www.w3.org/1999/xlink" x="0px" y="0px"
	 viewBox="0 0 170 120" style="enable-background:new 0 0 170 120;" xml:space="preserve">
<style type="text/css">
	.st0{fill:none;stroke:#005584;stroke-width:2;stroke-miterlimit:10;}
	.st1{fill:none;stroke:#005584;stroke-width:2;stroke-miterlimit:10;stroke-dasharray:4,4;}
	.st2{display:none;fill:none;stroke:#000000;stroke-width:2;stroke-miterlimit:10;}
	.st3{display:none;fill:none;stroke:#000000;stroke-width:2;stroke-miterlimit:10;stroke-dasharray:4,4;}
</style>
<path class="st0" d="M107,19.7c1.6,0,3,1.3,3,3s-1.3,3-3,3s-3-1.3-3-3S105.3,19.7,107,19.7z M107,48.5c1.6,0,3,1.3,3,3
	c0,1.6-1.3,3-3,3s-3-1.3-3-3C104,49.9,105.3,48.5,107,48.5z M107,77.3c1.6,0,3,1.3,3,3s-1.3,3-3,3s-3-1.3-3-3S105.3,77.3,107,77.3z"
	/>
<polyline class="st0" points="107,23 115.5,14.3 124.8,14.3 "/>
<line class="st0" x1="127.1" y1="14.3" x2="145.6" y2="14.3"/>
<line class="st0" x1="127.1" y1="51.3" x2="145.6" y2="51.3"/>
<line class="st0" x1="127.1" y1="45.9" x2="145.6" y2="45.9"/>
<line class="st0" x1="127.1" y1="57.5" x2="145.6" y2="57.5"/>
<line class="st0" x1="107.1" y1="51.3" x2="124.8" y2="51.3"/>
<line class="st0" x1="127.1" y1="19.7" x2="145.6" y2="19.7"/>
<polyline class="st0" points="107,80.3 115.5,89 124.8,89 "/>
<line class="st0" x1="127.1" y1="89" x2="145.6" y2="89"/>
<line class="st0" x1="127.1" y1="83.6" x2="145.6" y2="83.6"/>
<polyline class="st0" points="115.9,19.3 115.9,31.3 68.2,31.3 68.2,13.6 109.4,13.6 "/>
<path class="st0" d="M94.7,43.3c7.3,0,14.4,0.1,21.4,0.4c0,0-0.1,2.1-0.1,4.1"/>
<path class="st0" d="M115.9,55.5c0,2.2,0.1,5.4,0.1,5.4c-6.9-0.1-8.4-0.2-14.1-0.3"/>
<path class="st0" d="M98.8,71.3c6.3,0.4,11.3,0.4,17.3,0.4c0,4,0,8-0.1,11.6"/>
<path class="st0" d="M110.2,89c-3.9,0-7.9,0-11.8,0"/>
<line class="st0" x1="88.2" y1="13.9" x2="88.2" y2="31.7"/>
<line class="st0" x1="77" y1="14" x2="67.8" y2="23.3"/>
<line class="st0" x1="86.1" y1="14.2" x2="68.9" y2="31.4"/>
<line class="st0" x1="88.3" y1="21.3" x2="78.3" y2="31.2"/>
<path class="st0" d="M30.9,96.6c-10.2-4.9-17.4-13.4-18.5-25.4l-1.7-26h72.8l-1.1,25.4c-0.9,12.1-8,20.7-18,25.8"/>
<path class="st0" d="M70.9,75.9c1.1-2.1,1.9-4.4,2.2-6.7"/>
<path class="st0" d="M21,61.7l0.4,5.8c0.4,5.4,3,10.4,7.1,14c4.3,3.7,9.9,5.8,15.6,5.7h6.5c6.1,0,11.9-2.3,16.3-6.5
	c0.3-0.3,0.6-0.6,0.9-0.9"/>
<path class="st0" d="M83.1,53.3c0,0,9.5-4.4,14.3,3.6c2.5,4.9-0.2,14.8-10.5,16.3"/>
<path class="st0" d="M66,108.2H18.5c-5,0-9-4-9-9v-2H75"/>
<polyline class="st0" points="80.5,97.7 80.5,93.2 98.5,93.2 98.5,111.2 90,111.2 "/>
<rect x="71.5" y="102.2" class="st0" width="14" height="14"/>
<line class="st1" x1="15" y1="116.2" x2="3" y2="116.2"/>
<line class="st0" x1="67" y1="116.2" x2="15" y2="116.2"/>
<path id="gear-5-icon" class="st2" d="M162.9,119.4L160,110l-9.2-0.4c-1.2-1.8-2.5-3.4-4.1-4.9l1.3-9.1l-8.6-4.6l-6.8,6.2
	c-2.1-0.4-4.2-0.6-6.4-0.6l-5.5-7.4l-9.3,2.9l-0.4,9.2c-1.8,1.2-3.4,2.5-4.9,4.1l-9.1-1.3l-4.6,8.7l6.2,6.8
	c-0.4,2.1-0.6,4.2-0.6,6.4l-7.4,5.5l2.9,9.4l9.2,0.4c1.2,1.8,2.5,3.4,4.1,4.9l-1.3,9.1l8.6,4.6l6.8-6.2c2.1,0.4,4.2,0.6,6.4,0.6
	l5.5,7.4l9.3-2.9l0.4-9.2c1.8-1.2,3.4-2.5,4.9-4.1l9.1,1.3l4.6-8.6l-6.2-6.8c0.4-2.1,0.6-4.2,0.6-6.4L162.9,119.4z M130.7,138.1
	c-7,2.2-14.5-1.8-16.7-8.8c-2.2-7,1.8-14.5,8.8-16.7c7-2.2,14.5,1.8,16.7,8.8c0,0,0,0,0,0C141.7,128.5,137.8,136,130.7,138.1
	C130.7,138.1,130.7,138.1,130.7,138.1z"/>
<path class="st2" d="M144.6,134.2c-5,9.9-17,13.8-26.9,8.8c-6.8-3.4-11.1-10.4-11-18.1"/>
<path class="st3" d="M106.8,125c0.1-11,9.2-19.9,20.2-19.8s19.9,9.2,19.8,20.2c0,2.2-0.4,4.5-1.2,6.6"/>
<path class="st0" d="M58.8,37.7c0.2-12,0.2-23,0-35.3c13.7,0,0,0.7,0,0c33.2,0.3,65.2,0.3,98.2,0.3c0,33,0,67,0,100
	c-8,0-17,0-24.7-0.3"/>
<path class="st1" d="M132.6,102.4c-9.5,0-19.1,0-28.6,0"/>
<line class="st0" x1="164.8" y1="102.9" x2="164.8" y2="10.9"/>
</svg>
