<svg id="af3f2293-4690-4290-9241-a052c28ef84f" xmlns="http://www.w3.org/2000/svg" viewBox="0 0 102 116"><title>hero</title><circle cx="50.5" cy="4.5" r="4" fill="none" stroke="#0071bd" stroke-miterlimit="10"/><path
        d="M62.74,36.66c8.53,4.27,14.48,13.84,14.48,25,0,11.8-5.71,21.86-15.09,25.67" transform="translate(-12.08 -4.06)" fill="none" stroke="#0071bd" stroke-linejoin="round"/><path d="M82,78.14A25.78,25.78,0,0,0,63,36.66" transform="translate(-12.08 -4.06)" fill="none" stroke="#0071bd" stroke-linecap="round" stroke-miterlimit="10"/><path d="M61.93,87.51C49.05,86.14,37,75.32,37,62.18A25.26,25.26,0,0,1,42.07,47" transform="translate(-12.08 -4.06)" fill="none" stroke="#0071bd" stroke-linecap="round" stroke-miterlimit="10"/><line x1="24.83" y1="58.5" x2="75" y2="58.5" fill="none" stroke="#0071bd" stroke-miterlimit="10"/><path d="M42.07,47c2.51,1,8.32,3,19.62,3C72.34,50,79,48.23,81.85,47.24" transform="translate(-12.08 -4.06)" fill="none" stroke="#0071bd" stroke-linecap="round" stroke-miterlimit="10"/><path d="M82,78.14c-2.33-.87-8.9-2.85-20.32-2.85-10.31,0-15.41,1.56-18.39,2.56" transform="translate(-12.08 -4.06)" fill="none" stroke="#0071bd" stroke-linecap="round" stroke-miterlimit="10"/><circle cx="62" cy="83" r="2" fill="none" stroke="#0071bd" stroke-miterlimit="10" stroke-width="0.75"/><circle cx="38" cy="33" r="2" fill="none" stroke="#0071bd" stroke-miterlimit="10" stroke-width="0.75"/><line x1="9.55" y1="88.2" x2="43.97" y2="108.07" fill="none" stroke="#0071bd" stroke-miterlimit="10"/><line x1="4.5" y1="37" x2="4.5" y2="76" fill="none" stroke="#0071bd" stroke-miterlimit="10"/><line x1="44.21" y1="7.82" x2="10.99" y2="27" fill="none" stroke="#0071bd" stroke-miterlimit="10"/><line x1="91.26" y1="27.37" x2="57.28" y2="7.75" fill="none" stroke="#0071bd" stroke-miterlimit="10"/><line x1="97.5" y1="78" x2="97.5" y2="37" fill="none" stroke="#0071bd" stroke-miterlimit="10"/><line x1="56.85" y1="108.52" x2="91.69" y2="88.4" fill="none" stroke="#0071bd" stroke-miterlimit="10"/><circle cx="97.5" cy="30.5" r="4" fill="none" stroke="#0071bd" stroke-miterlimit="10"/><circle cx="4.5" cy="30.5" r="4" fill="none" stroke="#0071bd" stroke-miterlimit="10"/><circle cx="4.5" cy="84.5" r="4" fill="none" stroke="#0071bd" stroke-miterlimit="10"/><circle cx="50.5" cy="111.5" r="4" fill="none" stroke="#0071bd" stroke-miterlimit="10"/><circle cx="97.5" cy="84.5" r="4" fill="none" stroke="#0071bd" stroke-miterlimit="10"/><line x1="50.5" y1="9" x2="50.5" y2="33" fill="none" stroke="#0071bd" stroke-miterlimit="10"/><line x1="50.5" y1="83" x2="50.5" y2="107" fill="none" stroke="#0071bd" stroke-miterlimit="10"/><line x1="72.8" y1="46.01" x2="93.8" y2="33.01" fill="none" stroke="#0071bd" stroke-linecap="round" stroke-miterlimit="10"/><line x1="26.8" y1="72.01" x2="7.3" y2="83.05" fill="none" stroke="#0071bd" stroke-miterlimit="10" stroke-dasharray="4 4"/><path d="M63.22,87.28c-9.38-3.81-15.09-13.87-15.09-25.67,0-11.11,5.95-20.68,14.48-25" transform="translate(-12.08 -4.06)" fill="none" stroke="#0071bd" stroke-linejoin="round"/></svg>