<svg id="a7d30fb1-f218-4ecf-a7a3-ff20caf20bba" xmlns="http://www.w3.org/2000/svg" viewBox="0 0 400 400"><title>mindcoffee</title><polygon points="277.42 122.58 308.19 122.58 308.19 91.81 308.19 61.04 277.42 61.04 246.65 61.04 246.65 91.81 277.42 91.81 277.42 122.58"/><polygon points="185.12 91.81 185.12 61.04 154.35 61.04 123.58 61.04 123.58 91.81 154.35 91.81 185.12 91.81"/><rect x="92.81" y="91.81" width="30.77" height="30.77"/><polygon points="246.65 153.35 246.65 91.81 215.88 91.81 215.88 122.58 154.35 122.58 154.35 153.35 92.81 153.35 92.81 122.58 62.04 122.58 62.04 61.04 31.27 61.04 31.27 153.35 62.04 153.35 62.04 184.12 308.19 184.12 308.19 153.35 246.65 153.35"/><polygon points="338.96 122.58 308.19 122.58 308.19 153.35 338.96 153.35 338.96 184.12 369.73 184.12 369.73 61.04 338.96 61.04 338.96 91.81 338.96 122.58"/><rect x="308.19" y="30.27" width="30.77" height="30.77"/><rect x="62.04" y="30.27" width="30.77" height="30.77"/><polygon points="185.12 30.27 185.12 61.04 215.88 61.04 215.88 30.27 308.19 30.27 308.19 -0.5 92.81 -0.5 92.81 30.27 185.12 30.27"/><rect x="369.73" y="245.65" width="30.77" height="30.77"/><polygon points="338.96 245.65 369.73 245.65 369.73 214.88 308.19 214.88 246.65 214.88 62.04 214.88 62.04 337.96 92.81 337.96 92.81 368.73 123.58 368.73 123.58 399.5 277.42 399.5 277.42 368.73 308.19 368.73 308.19 337.96 338.96 337.96 338.96 307.19 369.73 307.19 369.73 276.42 338.96 276.42 338.96 245.65"/></svg>